<svg width="800" height="500" viewBox="0 0 800 500" xmlns="http://www.w3.org/2000/svg">
  <defs>
    <linearGradient id="bg1" x1="0" y1="0" x2="1" y2="1">
      <stop offset="0%" stop-color="#0B1120"/>
      <stop offset="100%" stop-color="#111827"/>
    </linearGradient>
    <linearGradient id="bar1" x1="0" y1="0" x2="0" y2="1">
      <stop offset="0%" stop-color="#7C6CFF"/>
      <stop offset="100%" stop-color="#43E6E0"/>
    </linearGradient>
  </defs>
  <rect width="800" height="500" fill="url(#bg1)"/>
  <g opacity="0.15">
    <line x1="0" y1="100" x2="800" y2="100" stroke="#ffffff"/>
    <line x1="0" y1="200" x2="800" y2="200" stroke="#ffffff"/>
    <line x1="0" y1="300" x2="800" y2="300" stroke="#ffffff"/>
    <line x1="0" y1="400" x2="800" y2="400" stroke="#ffffff"/>
  </g>
  <g>
    <rect x="80" y="260" width="60" height="150" rx="8" fill="url(#bar1)"/>
    <rect x="170" y="200" width="60" height="210" rx="8" fill="url(#bar1)" opacity="0.85"/>
    <rect x="260" y="140" width="60" height="270" rx="8" fill="url(#bar1)" opacity="0.7"/>
    <rect x="350" y="230" width="60" height="180" rx="8" fill="url(#bar1)" opacity="0.9"/>
    <rect x="440" y="100" width="60" height="310" rx="8" fill="url(#bar1)"/>
    <rect x="530" y="180" width="60" height="230" rx="8" fill="url(#bar1)" opacity="0.8"/>
  </g>
  <circle cx="650" cy="120" r="55" fill="none" stroke="#FF6CB6" stroke-width="10" opacity="0.6"/>
  <circle cx="650" cy="120" r="55" fill="none" stroke="#43E6E0" stroke-width="10" stroke-dasharray="220" stroke-dashoffset="60"/>
  <text x="80" y="60" font-family="monospace" font-size="22" fill="#F5F7FF">Sales Performance Analytics</text>
  <text x="80" y="85" font-family="monospace" font-size="14" fill="#9AA4C4">Power BI · ₹769M Tracked</text>
</svg>
