<svg width="800" height="500" viewBox="0 0 800 500" xmlns="http://www.w3.org/2000/svg">
  <defs>
    <linearGradient id="bg2" x1="0" y1="0" x2="1" y2="1">
      <stop offset="0%" stop-color="#111827"/>
      <stop offset="100%" stop-color="#0B1120"/>
    </linearGradient>
    <linearGradient id="line1" x1="0" y1="0" x2="1" y2="0">
      <stop offset="0%" stop-color="#43E6E0"/>
      <stop offset="100%" stop-color="#7C6CFF"/>
    </linearGradient>
  </defs>
  <rect width="800" height="500" fill="url(#bg2)"/>
  <g opacity="0.12">
    <line x1="0" y1="100" x2="800" y2="100" stroke="#ffffff"/>
    <line x1="0" y1="200" x2="800" y2="200" stroke="#ffffff"/>
    <line x1="0" y1="300" x2="800" y2="300" stroke="#ffffff"/>
    <line x1="0" y1="400" x2="800" y2="400" stroke="#ffffff"/>
  </g>
  <polyline points="80,350 180,300 280,330 380,220 480,260 580,150 680,190"
    fill="none" stroke="url(#line1)" stroke-width="6" stroke-linecap="round" stroke-linejoin="round"/>
  <g fill="#FF6CB6">
    <circle cx="80" cy="350" r="7"/>
    <circle cx="180" cy="300" r="7"/>
    <circle cx="280" cy="330" r="7"/>
    <circle cx="380" cy="220" r="7"/>
    <circle cx="480" cy="260" r="7"/>
    <circle cx="580" cy="150" r="7"/>
    <circle cx="680" cy="190" r="7"/>
  </g>
  <g opacity="0.8">
    <rect x="620" y="330" width="140" height="26" rx="6" fill="#7C6CFF" opacity="0.3"/>
    <rect x="620" y="365" width="100" height="26" rx="6" fill="#43E6E0" opacity="0.3"/>
  </g>
  <text x="80" y="60" font-family="monospace" font-size="22" fill="#F5F7FF">Retail Inventory Dashboard</text>
  <text x="80" y="85" font-family="monospace" font-size="14" fill="#9AA4C4">SQL · JOINs · CTEs · Window Fns</text>
</svg>
